<mxfile host="app.diagrams.net" agent="Mozilla/5.0 (Windows NT 10.0; Win64; x64) AppleWebKit/537.36 (KHTML, like Gecko) Chrome/130.0.0.0 Safari/537.36" version="24.8.2">
  <diagram id="C5RBs43oDa-KdzZeNtuy" name="Page-1">
    <mxGraphModel dx="1434" dy="772" grid="0" gridSize="10" guides="1" tooltips="1" connect="1" arrows="1" fold="1" page="1" pageScale="1" pageWidth="827" pageHeight="1169" math="0" shadow="0">
      <root>
        <mxCell id="WIyWlLk6GJQsqaUBKTNV-0" />
        <mxCell id="WIyWlLk6GJQsqaUBKTNV-1" parent="WIyWlLk6GJQsqaUBKTNV-0" />
        <mxCell id="evRFQ8Dqrcnhtjwd-w8t-0" value="Oeuvre" style="swimlane;fontStyle=1;align=center;verticalAlign=top;childLayout=stackLayout;horizontal=1;startSize=26;horizontalStack=0;resizeParent=1;resizeParentMax=0;resizeLast=0;collapsible=1;marginBottom=0;whiteSpace=wrap;html=1;" parent="WIyWlLk6GJQsqaUBKTNV-1" vertex="1">
          <mxGeometry x="57" y="139" width="160" height="188" as="geometry" />
        </mxCell>
        <mxCell id="evRFQ8Dqrcnhtjwd-w8t-1" value="&lt;span style=&quot;text-wrap-mode: nowrap;&quot;&gt;+ titre: String&lt;/span&gt;&lt;br style=&quot;padding: 0px; margin: 0px; text-wrap-mode: nowrap;&quot;&gt;&lt;span style=&quot;text-wrap-mode: nowrap;&quot;&gt;+ artiste: Artiste&lt;/span&gt;&lt;br style=&quot;padding: 0px; margin: 0px; text-wrap-mode: nowrap;&quot;&gt;&lt;span style=&quot;text-wrap-mode: nowrap;&quot;&gt;+ année: int&lt;/span&gt;&lt;br style=&quot;padding: 0px; margin: 0px; text-wrap-mode: nowrap;&quot;&gt;&lt;span style=&quot;text-wrap-mode: nowrap;&quot;&gt;+ description: String&lt;/span&gt;&lt;br style=&quot;padding: 0px; margin: 0px; text-wrap-mode: nowrap;&quot;&gt;&lt;span style=&quot;text-wrap-mode: nowrap;&quot;&gt;+ image: url&lt;/span&gt;&lt;div&gt;&lt;span style=&quot;text-wrap-mode: nowrap;&quot;&gt;+ courant: string&lt;/span&gt;&lt;/div&gt;&lt;div&gt;&lt;span style=&quot;text-wrap-mode: nowrap;&quot;&gt;&lt;br&gt;&lt;/span&gt;&lt;/div&gt;" style="text;strokeColor=none;fillColor=none;align=left;verticalAlign=top;spacingLeft=4;spacingRight=4;overflow=hidden;rotatable=0;points=[[0,0.5],[1,0.5]];portConstraint=eastwest;whiteSpace=wrap;html=1;" parent="evRFQ8Dqrcnhtjwd-w8t-0" vertex="1">
          <mxGeometry y="26" width="160" height="95" as="geometry" />
        </mxCell>
        <mxCell id="evRFQ8Dqrcnhtjwd-w8t-2" value="" style="line;strokeWidth=1;fillColor=none;align=left;verticalAlign=middle;spacingTop=-1;spacingLeft=3;spacingRight=3;rotatable=0;labelPosition=right;points=[];portConstraint=eastwest;strokeColor=inherit;" parent="evRFQ8Dqrcnhtjwd-w8t-0" vertex="1">
          <mxGeometry y="121" width="160" height="14" as="geometry" />
        </mxCell>
        <mxCell id="evRFQ8Dqrcnhtjwd-w8t-3" value="+ afficher_information()&lt;div&gt;+ get_url()&lt;/div&gt;&lt;div&gt;+&amp;nbsp;&lt;span style=&quot;background-color: initial;&quot;&gt;get_description()&lt;/span&gt;&lt;/div&gt;" style="text;strokeColor=none;fillColor=none;align=left;verticalAlign=top;spacingLeft=4;spacingRight=4;overflow=hidden;rotatable=0;points=[[0,0.5],[1,0.5]];portConstraint=eastwest;whiteSpace=wrap;html=1;" parent="evRFQ8Dqrcnhtjwd-w8t-0" vertex="1">
          <mxGeometry y="135" width="160" height="53" as="geometry" />
        </mxCell>
        <mxCell id="I2Vo8YAyR-l4Du6Dh9Zq-0" value="Artiste" style="swimlane;fontStyle=1;align=center;verticalAlign=top;childLayout=stackLayout;horizontal=1;startSize=26;horizontalStack=0;resizeParent=1;resizeParentMax=0;resizeLast=0;collapsible=1;marginBottom=0;whiteSpace=wrap;html=1;" parent="WIyWlLk6GJQsqaUBKTNV-1" vertex="1">
          <mxGeometry x="314" y="420" width="272" height="232" as="geometry" />
        </mxCell>
        <mxCell id="I2Vo8YAyR-l4Du6Dh9Zq-1" value="&lt;div&gt;+ nom: String&lt;/div&gt;&lt;div&gt;+ prenom : String&lt;/div&gt;&lt;div&gt;+ biographie : string&lt;/div&gt;&lt;div&gt;+ date_naissance : str&lt;/div&gt;&lt;div&gt;+ date_deces : str = Null&lt;br&gt;&lt;/div&gt;&lt;div&gt;&lt;br&gt;&lt;/div&gt;" style="text;strokeColor=none;fillColor=none;align=left;verticalAlign=top;spacingLeft=4;spacingRight=4;overflow=hidden;rotatable=0;points=[[0,0.5],[1,0.5]];portConstraint=eastwest;whiteSpace=wrap;html=1;" parent="I2Vo8YAyR-l4Du6Dh9Zq-0" vertex="1">
          <mxGeometry y="26" width="272" height="79" as="geometry" />
        </mxCell>
        <mxCell id="I2Vo8YAyR-l4Du6Dh9Zq-2" value="" style="line;strokeWidth=1;fillColor=none;align=left;verticalAlign=middle;spacingTop=-1;spacingLeft=3;spacingRight=3;rotatable=0;labelPosition=right;points=[];portConstraint=eastwest;strokeColor=inherit;" parent="I2Vo8YAyR-l4Du6Dh9Zq-0" vertex="1">
          <mxGeometry y="105" width="272" height="8" as="geometry" />
        </mxCell>
        <mxCell id="I2Vo8YAyR-l4Du6Dh9Zq-3" value="&lt;div&gt;+ get_identite(): String&lt;/div&gt;&lt;div&gt;+ get_bio() : String&lt;/div&gt;&lt;div&gt;+ set_date_deces(date : String) : Void&lt;/div&gt;&lt;div&gt;+ set_identite(nom : String = &#39;&#39;, prenom : String = &#39;&#39;, date_naissance : String = &#39;&#39;) : Void&lt;/div&gt;&lt;div&gt;+ set_bio(new_bio : String) : Void&lt;/div&gt;&lt;div&gt;+ del_artiste() : Void&lt;br&gt;&lt;/div&gt;&lt;div&gt;&amp;nbsp;&lt;br&gt;&lt;/div&gt;" style="text;strokeColor=none;fillColor=none;align=left;verticalAlign=top;spacingLeft=4;spacingRight=4;overflow=hidden;rotatable=0;points=[[0,0.5],[1,0.5]];portConstraint=eastwest;whiteSpace=wrap;html=1;" parent="I2Vo8YAyR-l4Du6Dh9Zq-0" vertex="1">
          <mxGeometry y="113" width="272" height="119" as="geometry" />
        </mxCell>
        <mxCell id="evRFQ8Dqrcnhtjwd-w8t-5" value="Collection" style="swimlane;fontStyle=1;align=center;verticalAlign=top;childLayout=stackLayout;horizontal=1;startSize=26;horizontalStack=0;resizeParent=1;resizeParentMax=0;resizeLast=0;collapsible=1;marginBottom=0;whiteSpace=wrap;html=1;" parent="WIyWlLk6GJQsqaUBKTNV-1" vertex="1">
          <mxGeometry x="381" y="142" width="305" height="176" as="geometry" />
        </mxCell>
        <mxCell id="evRFQ8Dqrcnhtjwd-w8t-6" value="+ nom: string&lt;div&gt;&lt;div&gt;+ liste_oeuvre : list[Oeuvre]&lt;/div&gt;&lt;/div&gt;" style="text;strokeColor=none;fillColor=none;align=left;verticalAlign=top;spacingLeft=4;spacingRight=4;overflow=hidden;rotatable=0;points=[[0,0.5],[1,0.5]];portConstraint=eastwest;whiteSpace=wrap;html=1;" parent="evRFQ8Dqrcnhtjwd-w8t-5" vertex="1">
          <mxGeometry y="26" width="305" height="42" as="geometry" />
        </mxCell>
        <mxCell id="evRFQ8Dqrcnhtjwd-w8t-7" value="" style="line;strokeWidth=1;fillColor=none;align=left;verticalAlign=middle;spacingTop=-1;spacingLeft=3;spacingRight=3;rotatable=0;labelPosition=right;points=[];portConstraint=eastwest;strokeColor=inherit;" parent="evRFQ8Dqrcnhtjwd-w8t-5" vertex="1">
          <mxGeometry y="68" width="305" height="21" as="geometry" />
        </mxCell>
        <mxCell id="evRFQ8Dqrcnhtjwd-w8t-8" value="+ affiche_collection(): void&lt;div&gt;+ creer_sous_collection(année: int, artiste: list[Artiste], courant: string, nom_sous_collection: string): Collection&lt;/div&gt;&lt;div&gt;+ ajouter_oeuvre(oeuvre:Oeuvre): void&lt;/div&gt;&lt;div&gt;+ supprimer_oeuvre(oeuvre: Oeuvre): void&lt;/div&gt;" style="text;strokeColor=none;fillColor=none;align=left;verticalAlign=top;spacingLeft=4;spacingRight=4;overflow=hidden;rotatable=0;points=[[0,0.5],[1,0.5]];portConstraint=eastwest;whiteSpace=wrap;html=1;" parent="evRFQ8Dqrcnhtjwd-w8t-5" vertex="1">
          <mxGeometry y="89" width="305" height="87" as="geometry" />
        </mxCell>
        <mxCell id="evRFQ8Dqrcnhtjwd-w8t-9" value="" style="endArrow=diamondThin;endFill=1;endSize=24;html=1;rounded=0;" parent="WIyWlLk6GJQsqaUBKTNV-1" edge="1">
          <mxGeometry width="160" relative="1" as="geometry">
            <mxPoint x="221" y="227" as="sourcePoint" />
            <mxPoint x="381" y="227" as="targetPoint" />
          </mxGeometry>
        </mxCell>
      </root>
    </mxGraphModel>
  </diagram>
</mxfile>
